<?xml version="1.0" encoding="UTF-8" standalone="no"?>
<!-- Created with Inkscape (http://www.inkscape.org/) -->

<svg
   xmlns:dc="http://purl.org/dc/elements/1.1/"
   xmlns:cc="http://creativecommons.org/ns#"
   xmlns:rdf="http://www.w3.org/1999/02/22-rdf-syntax-ns#"
   xmlns:svg="http://www.w3.org/2000/svg"
   xmlns="http://www.w3.org/2000/svg"
   xmlns:sodipodi="http://sodipodi.sourceforge.net/DTD/sodipodi-0.dtd"
   xmlns:inkscape="http://www.inkscape.org/namespaces/inkscape"
   width="256"
   height="256"
   viewBox="0 0 67.733332 67.733335"
   version="1.1"
   id="svg8"
   sodipodi:docname="gitga-icon.svg"
   inkscape:version="0.92.2 2405546, 2018-03-11"
   inkscape:export-filename="/home/erik/dev/gitga/src/browser/resources/img/gitga-icon.png"
   inkscape:export-xdpi="96"
   inkscape:export-ydpi="96"
   enable-background="new">
  <defs
     id="defs2">
    <clipPath
       clipPathUnits="userSpaceOnUse"
       id="clipPath895">
      <g
         id="use897"
         inkscape:label="Clip" />
    </clipPath>
  </defs>
  <sodipodi:namedview
     id="base"
     pagecolor="#ffffff"
     bordercolor="#666666"
     borderopacity="1.0"
     inkscape:pageopacity="0.0"
     inkscape:pageshadow="2"
     inkscape:zoom="2.8284271"
     inkscape:cx="109.6273"
     inkscape:cy="131.08801"
     inkscape:document-units="mm"
     inkscape:current-layer="layer1"
     showgrid="false"
     units="px"
     inkscape:showpageshadow="false"
     inkscape:window-width="1920"
     inkscape:window-height="1028"
     inkscape:window-x="0"
     inkscape:window-y="27"
     inkscape:window-maximized="1"
     inkscape:snap-intersection-paths="false"
     inkscape:snap-smooth-nodes="false"
     inkscape:object-paths="false"
     inkscape:object-nodes="true"
     inkscape:snap-nodes="true"
     inkscape:snap-perpendicular="true"
     inkscape:snap-tangential="true"
     inkscape:snap-object-midpoints="false" />
  <metadata
     id="metadata5">
    <rdf:RDF>
      <cc:Work
         rdf:about="">
        <dc:format>image/svg+xml</dc:format>
        <dc:type
           rdf:resource="http://purl.org/dc/dcmitype/StillImage" />
        <dc:title></dc:title>
      </cc:Work>
    </rdf:RDF>
  </metadata>
  <g
     inkscape:groupmode="layer"
     id="layer2"
     inkscape:label="Hexagon 1">
    <path
       sodipodi:type="star"
       style="fill:#fcffff;fill-opacity:1;stroke:none;stroke-width:0.26458332;stroke-opacity:1"
       id="path942"
       sodipodi:sides="6"
       sodipodi:cx="33.866669"
       sodipodi:cy="33.866669"
       sodipodi:r1="30.714362"
       sodipodi:r2="30.381142"
       sodipodi:arg1="0.52359949"
       sodipodi:arg2="1.0471983"
       inkscape:flatsided="true"
       inkscape:rounded="0"
       inkscape:randomized="0"
       d="M 60.466075,49.223868 33.866647,64.58103 7.2672407,49.22383 7.2672626,18.509469 33.866691,3.1523075 60.466097,18.509507 Z"
       inkscape:export-xdpi="96"
       inkscape:export-ydpi="96" />
  </g>
  <g
     inkscape:label="Hexagon"
     inkscape:groupmode="layer"
     id="layer1"
     transform="translate(0,-229.26665)"
     style="display:inline">
    <circle
       style="fill:#000000;fill-opacity:0.22360249;stroke:none;stroke-width:0.27323481;stroke-opacity:1"
       id="path944"
       cx="33.863049"
       cy="263.69821"
       r="5.9086986" />
    <path
       style="opacity:1;fill:#034ea7;fill-opacity:1;fill-rule:nonzero;stroke:none;stroke-width:1.33299994;stroke-linecap:round;stroke-linejoin:miter;stroke-miterlimit:4;stroke-dasharray:none;stroke-opacity:1"
       d="M 113.02344 20.560547 L 27.466797 69.957031 L 27.466797 186.04297 L 113.02344 235.43945 L 113.02344 165.44141 A 40.357144 40.357144 0 0 1 87.642578 128 A 40.357144 40.357144 0 0 1 113.02344 90.542969 L 113.02344 20.560547 z M 142.97656 20.560547 L 142.97656 90.558594 A 40.357144 40.357144 0 0 1 153.37891 96.662109 L 153.33398 96.585938 L 214.05859 61.599609 L 142.97656 20.560547 z M 228.5332 84.056641 L 167.59766 120.20898 L 167.53906 120.11133 A 40.357144 40.357144 0 0 1 168.35742 128 A 40.357144 40.357144 0 0 1 142.97656 165.45703 L 142.97656 235.43945 L 228.5332 186.04297 L 228.5332 84.056641 z M 128 106.03516 A 21.964285 21.964285 0 0 0 106.03516 128 A 21.964285 21.964285 0 0 0 128 149.96484 A 21.964285 21.964285 0 0 0 149.96484 128 A 21.964285 21.964285 0 0 0 128 106.03516 z "
       transform="matrix(0.26458333,0,0,0.26458333,0,229.26665)"
       id="path817" />
  </g>
</svg>
